<svg viewBox="0 0 370 252" fill="none" xmlns="http://www.w3.org/2000/svg">
<path d="M84.038 6.549C85.848 6.549 87.315 5.083 87.315 3.274C87.315 1.466 85.848 0 84.038 0C82.229 0 80.762 1.466 80.762 3.274C80.762 5.083 82.229 6.549 84.038 6.549Z" fill="#E6E6E6"/>
<path d="M100.624 6.549C102.433 6.549 103.9 5.083 103.9 3.274C103.9 1.466 102.433 0 100.624 0C98.814 0 97.347 1.466 97.347 3.274C97.347 5.083 98.814 6.549 100.624 6.549Z" fill="#E6E6E6"/>
<path d="M117.209 6.549C119.019 6.549 120.486 5.083 120.486 3.274C120.486 1.466 119.019 0 117.209 0C115.4 0 113.933 1.466 113.933 3.274C113.933 5.083 115.4 6.549 117.209 6.549Z" fill="#E6E6E6"/>
<path d="M133.794 6.549C135.604 6.549 137.071 5.083 137.071 3.274C137.071 1.466 135.604 0 133.794 0C131.985 0 130.518 1.466 130.518 3.274C130.518 5.083 131.985 6.549 133.794 6.549Z" fill="#E6E6E6"/>
<path d="M150.38 6.549C152.189 6.549 153.656 5.083 153.656 3.274C153.656 1.466 152.189 0 150.38 0C148.57 0 147.103 1.466 147.103 3.274C147.103 5.083 148.57 6.549 150.38 6.549Z" fill="#E6E6E6"/>
<path d="M84.038 23.331C85.848 23.331 87.315 21.865 87.315 20.057C87.315 18.248 85.848 16.783 84.038 16.783C82.229 16.783 80.762 18.248 80.762 20.057C80.762 21.865 82.229 23.331 84.038 23.331Z" fill="#E6E6E6"/>
<path d="M100.624 23.331C102.433 23.331 103.9 21.865 103.9 20.057C103.9 18.248 102.433 16.783 100.624 16.783C98.814 16.783 97.347 18.248 97.347 20.057C97.347 21.865 98.814 23.331 100.624 23.331Z" fill="#E6E6E6"/>
<path d="M117.209 23.331C119.019 23.331 120.486 21.865 120.486 20.057C120.486 18.248 119.019 16.783 117.209 16.783C115.4 16.783 113.933 18.248 113.933 20.057C113.933 21.865 115.4 23.331 117.209 23.331Z" fill="#E6E6E6"/>
<path d="M133.794 23.331C135.604 23.331 137.071 21.865 137.071 20.057C137.071 18.248 135.604 16.783 133.794 16.783C131.985 16.783 130.518 18.248 130.518 20.057C130.518 21.865 131.985 23.331 133.794 23.331Z" fill="#6C63FF"/>
<path d="M150.38 23.331C152.189 23.331 153.656 21.865 153.656 20.057C153.656 18.248 152.189 16.783 150.38 16.783C148.57 16.783 147.103 18.248 147.103 20.057C147.103 21.865 148.57 23.331 150.38 23.331Z" fill="#E6E6E6"/>
<path d="M183.55 23.331C185.36 23.331 186.827 21.865 186.827 20.057C186.827 18.248 185.36 16.783 183.55 16.783C181.741 16.783 180.274 18.248 180.274 20.057C180.274 21.865 181.741 23.331 183.55 23.331Z" fill="#E6E6E6"/>
<path d="M84.038 40.114C85.848 40.114 87.315 38.648 87.315 36.839C87.315 35.031 85.848 33.565 84.038 33.565C82.229 33.565 80.762 35.031 80.762 36.839C80.762 38.648 82.229 40.114 84.038 40.114Z" fill="#E6E6E6"/>
<path d="M100.624 40.114C102.433 40.114 103.9 38.648 103.9 36.839C103.9 35.031 102.433 33.565 100.624 33.565C98.814 33.565 97.347 35.031 97.347 36.839C97.347 38.648 98.814 40.114 100.624 40.114Z" fill="#E6E6E6"/>
<path d="M117.209 40.114C119.019 40.114 120.486 38.648 120.486 36.839C120.486 35.031 119.019 33.565 117.209 33.565C115.4 33.565 113.933 35.031 113.933 36.839C113.933 38.648 115.4 40.114 117.209 40.114Z" fill="#E6E6E6"/>
<path d="M133.794 40.114C135.604 40.114 137.071 38.648 137.071 36.839C137.071 35.031 135.604 33.565 133.794 33.565C131.985 33.565 130.518 35.031 130.518 36.839C130.518 38.648 131.985 40.114 133.794 40.114Z" fill="#E6E6E6"/>
<path d="M150.38 40.114C152.189 40.114 153.656 38.648 153.656 36.839C153.656 35.031 152.189 33.565 150.38 33.565C148.57 33.565 147.103 35.031 147.103 36.839C147.103 38.648 148.57 40.114 150.38 40.114Z" fill="#E6E6E6"/>
<path d="M84.038 56.896C85.848 56.896 87.315 55.43 87.315 53.622C87.315 51.814 85.848 50.348 84.038 50.348C82.229 50.348 80.762 51.814 80.762 53.622C80.762 55.43 82.229 56.896 84.038 56.896Z" fill="#E6E6E6"/>
<path d="M100.624 56.896C102.433 56.896 103.9 55.43 103.9 53.622C103.9 51.814 102.433 50.348 100.624 50.348C98.814 50.348 97.347 51.814 97.347 53.622C97.347 55.43 98.814 56.896 100.624 56.896Z" fill="#E6E6E6"/>
<path d="M117.209 56.896C119.019 56.896 120.486 55.43 120.486 53.622C120.486 51.814 119.019 50.348 117.209 50.348C115.4 50.348 113.933 51.814 113.933 53.622C113.933 55.43 115.4 56.896 117.209 56.896Z" fill="#E6E6E6"/>
<path d="M133.794 56.896C135.604 56.896 137.071 55.43 137.071 53.622C137.071 51.814 135.604 50.348 133.794 50.348C131.985 50.348 130.518 51.814 130.518 53.622C130.518 55.43 131.985 56.896 133.794 56.896Z" fill="#E6E6E6"/>
<path d="M150.38 56.896C152.189 56.896 153.656 55.43 153.656 53.622C153.656 51.814 152.189 50.348 150.38 50.348C148.57 50.348 147.103 51.814 147.103 53.622C147.103 55.43 148.57 56.896 150.38 56.896Z" fill="#E6E6E6"/>
<path d="M166.965 56.896C168.775 56.896 170.242 55.43 170.242 53.622C170.242 51.814 168.775 50.348 166.965 50.348C165.156 50.348 163.689 51.814 163.689 53.622C163.689 55.43 165.156 56.896 166.965 56.896Z" fill="#E6E6E6"/>
<path d="M183.55 56.896C185.36 56.896 186.827 55.43 186.827 53.622C186.827 51.814 185.36 50.348 183.55 50.348C181.741 50.348 180.274 51.814 180.274 53.622C180.274 55.43 181.741 56.896 183.55 56.896Z" fill="#E6E6E6"/>
<path d="M200.136 56.896C201.945 56.896 203.412 55.43 203.412 53.622C203.412 51.814 201.945 50.348 200.136 50.348C198.326 50.348 196.859 51.814 196.859 53.622C196.859 55.43 198.326 56.896 200.136 56.896Z" fill="#E6E6E6"/>
<path d="M216.721 56.896C218.531 56.896 219.998 55.43 219.998 53.622C219.998 51.814 218.531 50.348 216.721 50.348C214.912 50.348 213.445 51.814 213.445 53.622C213.445 55.43 214.912 56.896 216.721 56.896Z" fill="#E6E6E6"/>
<path d="M233.306 56.896C235.116 56.896 236.583 55.43 236.583 53.622C236.583 51.814 235.116 50.348 233.306 50.348C231.497 50.348 230.03 51.814 230.03 53.622C230.03 55.43 231.497 56.896 233.306 56.896Z" fill="#E6E6E6"/>
<path d="M150.38 73.679C152.189 73.679 153.656 72.213 153.656 70.404C153.656 68.596 152.189 67.13 150.38 67.13C148.57 67.13 147.103 68.596 147.103 70.404C147.103 72.213 148.57 73.679 150.38 73.679Z" fill="#E6E6E6"/>
<path d="M166.965 73.679C168.775 73.679 170.242 72.213 170.242 70.404C170.242 68.596 168.775 67.13 166.965 67.13C165.156 67.13 163.689 68.596 163.689 70.404C163.689 72.213 165.156 73.679 166.965 73.679Z" fill="#6C63FF"/>
<path d="M183.55 73.679C185.36 73.679 186.827 72.213 186.827 70.404C186.827 68.596 185.36 67.13 183.55 67.13C181.741 67.13 180.274 68.596 180.274 70.404C180.274 72.213 181.741 73.679 183.55 73.679Z" fill="#E6E6E6"/>
<path d="M200.136 73.679C201.945 73.679 203.412 72.213 203.412 70.404C203.412 68.596 201.945 67.13 200.136 67.13C198.326 67.13 196.859 68.596 196.859 70.404C196.859 72.213 198.326 73.679 200.136 73.679Z" fill="#E6E6E6"/>
<path d="M216.721 73.679C218.531 73.679 219.998 72.213 219.998 70.404C219.998 68.596 218.531 67.13 216.721 67.13C214.912 67.13 213.445 68.596 213.445 70.404C213.445 72.213 214.912 73.679 216.721 73.679Z" fill="#E6E6E6"/>
<path d="M233.306 73.679C235.116 73.679 236.583 72.213 236.583 70.404C236.583 68.596 235.116 67.13 233.306 67.13C231.497 67.13 230.03 68.596 230.03 70.404C230.03 72.213 231.497 73.679 233.306 73.679Z" fill="#E6E6E6"/>
<path d="M150.38 90.461C152.189 90.461 153.656 88.995 153.656 87.187C153.656 85.379 152.189 83.913 150.38 83.913C148.57 83.913 147.103 85.379 147.103 87.187C147.103 88.995 148.57 90.461 150.38 90.461Z" fill="#E6E6E6"/>
<path d="M166.965 90.461C168.775 90.461 170.242 88.995 170.242 87.187C170.242 85.379 168.775 83.913 166.965 83.913C165.156 83.913 163.689 85.379 163.689 87.187C163.689 88.995 165.156 90.461 166.965 90.461Z" fill="#E6E6E6"/>
<path d="M183.55 90.461C185.36 90.461 186.827 88.995 186.827 87.187C186.827 85.379 185.36 83.913 183.55 83.913C181.741 83.913 180.274 85.379 180.274 87.187C180.274 88.995 181.741 90.461 183.55 90.461Z" fill="#E6E6E6"/>
<path d="M200.136 90.461C201.945 90.461 203.412 88.995 203.412 87.187C203.412 85.379 201.945 83.913 200.136 83.913C198.326 83.913 196.859 85.379 196.859 87.187C196.859 88.995 198.326 90.461 200.136 90.461Z" fill="#E6E6E6"/>
<path d="M216.721 90.461C218.531 90.461 219.998 88.995 219.998 87.187C219.998 85.379 218.531 83.913 216.721 83.913C214.912 83.913 213.445 85.379 213.445 87.187C213.445 88.995 214.912 90.461 216.721 90.461Z" fill="#6C63FF"/>
<path d="M233.306 90.461C235.116 90.461 236.583 88.995 236.583 87.187C236.583 85.379 235.116 83.913 233.306 83.913C231.497 83.913 230.03 85.379 230.03 87.187C230.03 88.995 231.497 90.461 233.306 90.461Z" fill="#E6E6E6"/>
<path d="M150.38 107.244C152.189 107.244 153.656 105.778 153.656 103.969C153.656 102.161 152.189 100.695 150.38 100.695C148.57 100.695 147.103 102.161 147.103 103.969C147.103 105.778 148.57 107.244 150.38 107.244Z" fill="#E6E6E6"/>
<path d="M166.965 107.244C168.775 107.244 170.242 105.778 170.242 103.969C170.242 102.161 168.775 100.695 166.965 100.695C165.156 100.695 163.689 102.161 163.689 103.969C163.689 105.778 165.156 107.244 166.965 107.244Z" fill="#E6E6E6"/>
<path d="M183.55 107.244C185.36 107.244 186.827 105.778 186.827 103.969C186.827 102.161 185.36 100.695 183.55 100.695C181.741 100.695 180.274 102.161 180.274 103.969C180.274 105.778 181.741 107.244 183.55 107.244Z" fill="#E6E6E6"/>
<path d="M200.136 107.244C201.945 107.244 203.412 105.778 203.412 103.969C203.412 102.161 201.945 100.695 200.136 100.695C198.326 100.695 196.859 102.161 196.859 103.969C196.859 105.778 198.326 107.244 200.136 107.244Z" fill="#E6E6E6"/>
<path d="M216.721 107.244C218.531 107.244 219.998 105.778 219.998 103.969C219.998 102.161 218.531 100.695 216.721 100.695C214.912 100.695 213.445 102.161 213.445 103.969C213.445 105.778 214.912 107.244 216.721 107.244Z" fill="#E6E6E6"/>
<path d="M233.306 107.244C235.116 107.244 236.583 105.778 236.583 103.969C236.583 102.161 235.116 100.695 233.306 100.695C231.497 100.695 230.03 102.161 230.03 103.969C230.03 105.778 231.497 107.244 233.306 107.244Z" fill="#E6E6E6"/>
<path d="M84.038 124.026C85.848 124.026 87.315 122.56 87.315 120.752C87.315 118.944 85.848 117.478 84.038 117.478C82.229 117.478 80.762 118.944 80.762 120.752C80.762 122.56 82.229 124.026 84.038 124.026Z" fill="#E6E6E6"/>
<path d="M100.624 124.026C102.433 124.026 103.9 122.56 103.9 120.752C103.9 118.944 102.433 117.478 100.624 117.478C98.814 117.478 97.347 118.944 97.347 120.752C97.347 122.56 98.814 124.026 100.624 124.026Z" fill="#E6E6E6"/>
<path d="M117.209 124.026C119.019 124.026 120.486 122.56 120.486 120.752C120.486 118.944 119.019 117.478 117.209 117.478C115.4 117.478 113.933 118.944 113.933 120.752C113.933 122.56 115.4 124.026 117.209 124.026Z" fill="#E6E6E6"/>
<path d="M133.794 124.026C135.604 124.026 137.071 122.56 137.071 120.752C137.071 118.944 135.604 117.478 133.794 117.478C131.985 117.478 130.518 118.944 130.518 120.752C130.518 122.56 131.985 124.026 133.794 124.026Z" fill="#E6E6E6"/>
<path d="M150.38 124.026C152.189 124.026 153.656 122.56 153.656 120.752C153.656 118.944 152.189 117.478 150.38 117.478C148.57 117.478 147.103 118.944 147.103 120.752C147.103 122.56 148.57 124.026 150.38 124.026Z" fill="#E6E6E6"/>
<path d="M166.965 124.026C168.775 124.026 170.242 122.56 170.242 120.752C170.242 118.944 168.775 117.478 166.965 117.478C165.156 117.478 163.689 118.944 163.689 120.752C163.689 122.56 165.156 124.026 166.965 124.026Z" fill="#E6E6E6"/>
<path d="M183.55 124.026C185.36 124.026 186.827 122.56 186.827 120.752C186.827 118.944 185.36 117.478 183.55 117.478C181.741 117.478 180.274 118.944 180.274 120.752C180.274 122.56 181.741 124.026 183.55 124.026Z" fill="#E6E6E6"/>
<path d="M200.136 124.026C201.945 124.026 203.412 122.56 203.412 120.752C203.412 118.944 201.945 117.478 200.136 117.478C198.326 117.478 196.859 118.944 196.859 120.752C196.859 122.56 198.326 124.026 200.136 124.026Z" fill="#E6E6E6"/>
<path d="M216.721 124.026C218.531 124.026 219.998 122.56 219.998 120.752C219.998 118.944 218.531 117.478 216.721 117.478C214.912 117.478 213.445 118.944 213.445 120.752C213.445 122.56 214.912 124.026 216.721 124.026Z" fill="#E6E6E6"/>
<path d="M233.306 124.026C235.116 124.026 236.583 122.56 236.583 120.752C236.583 118.944 235.116 117.478 233.306 117.478C231.497 117.478 230.03 118.944 230.03 120.752C230.03 122.56 231.497 124.026 233.306 124.026Z" fill="#E6E6E6"/>
<path d="M84.037 140.808C85.846 140.808 87.313 139.342 87.313 137.534C87.313 135.726 85.846 134.26 84.037 134.26C82.227 134.26 80.76 135.726 80.76 137.534C80.76 139.342 82.227 140.808 84.037 140.808Z" fill="#E6E6E6"/>
<path d="M100.624 140.809C102.433 140.809 103.9 139.343 103.9 137.534C103.9 135.726 102.433 134.26 100.624 134.26C98.814 134.26 97.347 135.726 97.347 137.534C97.347 139.343 98.814 140.809 100.624 140.809Z" fill="#E6E6E6"/>
<path d="M84.037 157.591C85.846 157.591 87.313 156.125 87.313 154.316C87.313 152.508 85.846 151.042 84.037 151.042C82.227 151.042 80.76 152.508 80.76 154.316C80.76 156.125 82.227 157.591 84.037 157.591Z" fill="#E6E6E6"/>
<path d="M100.624 157.591C102.433 157.591 103.9 156.125 103.9 154.317C103.9 152.509 102.433 151.043 100.624 151.043C98.814 151.043 97.347 152.509 97.347 154.317C97.347 156.125 98.814 157.591 100.624 157.591Z" fill="#E6E6E6"/>
<path d="M133.794 157.591C135.604 157.591 137.071 156.125 137.071 154.317C137.071 152.509 135.604 151.043 133.794 151.043C131.985 151.043 130.518 152.509 130.518 154.317C130.518 156.125 131.985 157.591 133.794 157.591Z" fill="#E6E6E6"/>
<path d="M299.112 38.63H169.272C168.635 38.63 168.024 38.376 167.573 37.926C167.122 37.475 166.869 36.864 166.868 36.227V4.041C166.869 3.404 167.122 2.793 167.573 2.343C168.024 1.892 168.635 1.639 169.272 1.638H299.112C299.749 1.639 300.361 1.892 300.811 2.343C301.262 2.793 301.516 3.404 301.516 4.041V36.227C301.516 36.864 301.262 37.475 300.811 37.926C300.361 38.376 299.749 38.63 299.112 38.63ZM169.272 2.599C168.89 2.6 168.523 2.752 168.253 3.022C167.982 3.292 167.83 3.659 167.83 4.041V36.227C167.83 36.61 167.982 36.976 168.253 37.246C168.523 37.517 168.89 37.669 169.272 37.669H299.112C299.494 37.669 299.861 37.517 300.132 37.246C300.402 36.976 300.554 36.61 300.555 36.227V4.041C300.554 3.659 300.402 3.292 300.132 3.022C299.861 2.752 299.494 2.6 299.112 2.599H169.272Z" fill="#E6E6E6"/>
<path d="M186.103 30.226C191.681 30.226 196.202 25.708 196.202 20.134C196.202 14.56 191.681 10.042 186.103 10.042C180.526 10.042 176.005 14.56 176.005 20.134C176.005 25.708 180.526 30.226 186.103 30.226Z" fill="#6C63FF"/>
<path d="M209.426 13.406C208.98 13.406 208.552 13.583 208.236 13.899C207.921 14.214 207.743 14.642 207.743 15.088C207.743 15.534 207.921 15.962 208.236 16.277C208.552 16.593 208.98 16.77 209.426 16.77H254.149C254.595 16.77 255.023 16.593 255.339 16.277C255.655 15.962 255.832 15.534 255.832 15.088C255.832 14.642 255.655 14.214 255.339 13.899C255.023 13.583 254.595 13.406 254.149 13.406H209.426Z" fill="#E6E6E6"/>
<path d="M209.426 23.498C208.98 23.498 208.552 23.675 208.236 23.991C207.921 24.306 207.743 24.734 207.743 25.18C207.743 25.626 207.921 26.054 208.236 26.369C208.552 26.685 208.98 26.862 209.426 26.862H288.773C289.219 26.862 289.647 26.685 289.963 26.369C290.279 26.054 290.456 25.626 290.456 25.18C290.456 24.734 290.279 24.306 289.963 23.991C289.647 23.675 289.219 23.498 288.773 23.498H209.426Z" fill="#E6E6E6"/>
<path d="M132.244 103.988H2.4044C1.767 103.987 1.1558 103.734 0.705099 103.284C0.254299 102.833 0.0007 102.222 0 101.585V69.399C0.0007 68.762 0.254299 68.151 0.705099 67.7C1.1558 67.25 1.767 66.997 2.4044 66.996H132.244C132.882 66.997 133.493 67.25 133.944 67.7C134.394 68.151 134.648 68.762 134.649 69.399V101.585C134.648 102.222 134.394 102.833 133.944 103.284C133.493 103.734 132.882 103.987 132.244 103.988ZM2.4044 67.957C2.0219 67.957 1.6552 68.109 1.3848 68.38C1.1143 68.65 0.9622 69.016 0.9618 69.399V101.585C0.9622 101.968 1.1143 102.334 1.3848 102.604C1.6552 102.875 2.0219 103.027 2.4044 103.027H132.244C132.627 103.027 132.993 102.875 133.264 102.604C133.534 102.334 133.686 101.968 133.687 101.585V69.399C133.686 69.016 133.534 68.65 133.264 68.38C132.993 68.109 132.627 67.957 132.244 67.957H2.4044Z" fill="#E6E6E6"/>
<path d="M19.2355 95.584C24.8128 95.584 29.3341 91.066 29.3341 85.492C29.3341 79.918 24.8128 75.4 19.2355 75.4C13.6582 75.4 9.1369 79.918 9.1369 85.492C9.1369 91.066 13.6582 95.584 19.2355 95.584Z" fill="#6C63FF"/>
<path d="M42.5585 78.764C42.1121 78.764 41.684 78.941 41.3684 79.256C41.0527 79.572 40.8754 80 40.8754 80.446C40.8754 80.892 41.0527 81.32 41.3684 81.635C41.684 81.951 42.1121 82.128 42.5585 82.128H89.205C89.651 82.128 90.079 81.951 90.395 81.635C90.71 81.32 90.888 80.892 90.888 80.446C90.888 80 90.71 79.572 90.395 79.256C90.079 78.941 89.651 78.764 89.205 78.764H42.5585Z" fill="#E6E6E6"/>
<path d="M42.5585 88.856C42.1121 88.856 41.684 89.033 41.3684 89.348C41.0527 89.664 40.8754 90.092 40.8754 90.538C40.8754 90.984 41.0527 91.412 41.3684 91.727C41.684 92.043 42.1121 92.22 42.5585 92.22H121.905C122.351 92.22 122.779 92.043 123.095 91.727C123.411 91.412 123.588 90.984 123.588 90.538C123.588 90.092 123.411 89.664 123.095 89.348C122.779 89.033 122.351 88.856 121.905 88.856H42.5585Z" fill="#E6E6E6"/>
<path d="M249.581 174.632H119.741C119.103 174.632 118.492 174.378 118.042 173.928C117.591 173.477 117.337 172.866 117.336 172.229V140.043C117.337 139.406 117.591 138.795 118.042 138.345C118.492 137.894 119.103 137.641 119.741 137.64H249.581C250.218 137.641 250.829 137.894 251.28 138.345C251.731 138.795 251.984 139.406 251.985 140.043V172.229C251.984 172.866 251.731 173.477 251.28 173.928C250.829 174.378 250.218 174.632 249.581 174.632ZM119.741 138.601C119.358 138.602 118.992 138.754 118.721 139.024C118.451 139.294 118.299 139.661 118.298 140.043V172.229C118.299 172.612 118.451 172.978 118.721 173.248C118.992 173.519 119.358 173.671 119.741 173.671H249.581C249.963 173.671 250.33 173.519 250.6 173.248C250.871 172.978 251.023 172.612 251.023 172.229V140.043C251.023 139.661 250.871 139.294 250.6 139.024C250.33 138.754 249.963 138.602 249.581 138.601H119.741Z" fill="#3F3D56"/>
<path d="M136.572 166.228C142.149 166.228 146.671 161.71 146.671 156.136C146.671 150.562 142.149 146.044 136.572 146.044C130.995 146.044 126.473 150.562 126.473 156.136C126.473 161.71 130.995 166.228 136.572 166.228Z" fill="#6C63FF"/>
<path d="M159.895 149.408C159.449 149.408 159.02 149.585 158.705 149.901C158.389 150.216 158.212 150.644 158.212 151.09C158.212 151.536 158.389 151.964 158.705 152.279C159.02 152.595 159.449 152.772 159.895 152.772H202.694C203.14 152.772 203.568 152.595 203.884 152.279C204.2 151.964 204.377 151.536 204.377 151.09C204.377 150.644 204.2 150.216 203.884 149.901C203.568 149.585 203.14 149.408 202.694 149.408H159.895Z" fill="#E6E6E6"/>
<path d="M159.895 159.5C159.449 159.5 159.02 159.677 158.705 159.993C158.389 160.308 158.212 160.736 158.212 161.182C158.212 161.628 158.389 162.056 158.705 162.371C159.02 162.687 159.449 162.864 159.895 162.864H239.241C239.688 162.864 240.116 162.687 240.431 162.371C240.747 162.056 240.924 161.628 240.924 161.182C240.924 160.736 240.747 160.308 240.431 159.993C240.116 159.677 239.688 159.5 239.241 159.5H159.895Z" fill="#E6E6E6"/>
<path d="M319.429 166.469C313.79 183.375 290.722 165.445 290.722 165.445L296.874 101.41C306.101 94.238 315.841 100.385 315.841 100.385L319.429 166.469Z" fill="#E6E6E6"/>
<path d="M318.218 223.206L326.078 223.288L324.114 245.931H318.219L318.218 223.206Z" fill="#FFB8B8"/>
<path d="M316.715 244.007H328.325C330.287 244.009 332.168 244.789 333.555 246.175C334.942 247.561 335.722 249.441 335.725 251.401V251.642H316.715V244.007Z" fill="#2F2E41"/>
<path d="M296.91 223.206L288.209 223.205L291.013 245.93L296.909 245.931L296.91 223.206Z" fill="#FFB8B8"/>
<path d="M279.402 251.641V251.401C279.402 249.44 280.182 247.559 281.57 246.173C282.958 244.786 284.84 244.007 286.802 244.007H298.413L298.412 251.642L279.402 251.641Z" fill="#2F2E41"/>
<path d="M317.687 242.008L307.39 182.022L297.849 241.235L288.183 241.772L285.606 162.436L285.8 162.393C287.398 162.035 325.01 153.78 331.176 165.59L331.207 165.649L326.061 242.278L317.687 242.008Z" fill="#2F2E41"/>
<path d="M306.774 93.906C313.297 93.906 318.585 88.621 318.585 82.102C318.585 75.583 313.297 70.299 306.774 70.299C300.251 70.299 294.963 75.583 294.963 82.102C294.963 88.621 300.251 93.906 306.774 93.906Z" fill="#FFB8B8"/>
<path d="M316.697 171.528C315.312 171.145 314.314 169.556 313.557 166.528C313.426 166.005 301.164 113.803 311.534 104.346L313.924 97.71L317.196 99.889C318.353 99.9 330.189 100.199 331.201 107.782C332.191 115.203 334.887 164.928 332.177 168.021C332.124 168.089 332.057 168.145 331.98 168.184C331.903 168.223 331.818 168.244 331.732 168.246C328.986 168.246 328.152 165.201 327.956 164.231C327.303 164.501 325.358 165.494 322.162 168.688C320.182 170.667 318.63 171.615 317.347 171.615C317.127 171.616 316.909 171.586 316.697 171.528Z" fill="#2F2E41"/>
<path d="M291.065 168.688C287.868 165.493 285.923 164.5 285.271 164.231C285.075 165.201 284.242 168.246 281.495 168.246C281.409 168.244 281.324 168.223 281.247 168.184C281.17 168.145 281.103 168.089 281.05 168.021C278.34 164.928 281.036 115.204 282.026 107.782C283.038 100.199 294.874 99.9 296.032 99.889L299.303 97.71L301.693 104.346C312.063 113.803 299.801 166.006 299.67 166.528C298.913 169.556 297.915 171.145 296.531 171.528C296.319 171.587 296.1 171.616 295.88 171.615C294.597 171.615 293.045 170.667 291.065 168.688Z" fill="#2F2E41"/>
<path d="M316.525 88.844C318.523 87.408 320.037 85.398 320.864 83.081C321.691 80.765 321.792 78.251 321.155 75.875C320.518 73.5 319.172 71.374 317.296 69.781C315.42 68.188 313.104 67.204 310.655 66.959C309.568 66.85 308.397 66.867 307.495 66.25C306.694 65.701 306.263 64.75 305.527 64.118C305.059 63.756 304.522 63.495 303.949 63.351C303.376 63.207 302.779 63.182 302.196 63.279C301.032 63.479 299.904 63.85 298.848 64.378C296.229 65.545 293.445 66.981 292.253 69.588C291.221 71.845 291.677 74.629 293.138 76.636C294.674 78.623 296.915 79.945 299.397 80.33C301.865 80.698 304.385 80.471 306.748 79.668C308.306 79.178 309.845 78.51 311.479 78.456C312.753 78.413 314.012 78.75 315.094 79.425C316.177 80.099 317.034 81.08 317.557 82.242C318.08 83.405 318.245 84.697 318.032 85.953C317.818 87.21 317.235 88.375 316.357 89.299" fill="#2F2E41"/>
<path d="M252.149 159.06C252.831 159.045 253.503 158.895 254.127 158.619C254.751 158.344 255.314 157.949 255.785 157.456C256.256 156.962 256.626 156.382 256.872 155.746C257.118 155.11 257.237 154.432 257.221 153.751L264.109 142.137L258.787 137.261L251.532 148.704C250.193 148.833 248.956 149.475 248.082 150.496C247.208 151.518 246.764 152.838 246.844 154.18C246.924 155.521 247.521 156.78 248.511 157.69C249.5 158.6 250.804 159.092 252.149 159.06Z" fill="#FFB8B8"/>
<path d="M332.059 171.783C332.631 171.411 333.123 170.93 333.508 170.368C333.894 169.805 334.164 169.172 334.305 168.505C334.446 167.838 334.454 167.15 334.328 166.48C334.203 165.81 333.946 165.172 333.574 164.601L333.31 151.103L326.217 149.758L326.078 163.304C325.007 164.118 324.295 165.315 324.089 166.643C323.884 167.971 324.202 169.327 324.977 170.426C325.752 171.524 326.923 172.28 328.244 172.533C329.565 172.786 330.933 172.517 332.059 171.783Z" fill="#FFB8B8"/>
<path d="M254.244 140.386L254.164 140.259L254.244 140.131C264.575 123.552 286.261 102.842 286.479 102.635L286.547 102.569L289.226 102.542L292.121 109.751C291.219 111.484 266.925 145.366 263.716 147.613C263.461 147.79 263.171 147.911 262.866 147.968C262.561 148.026 262.247 148.018 261.945 147.947C261.41 147.823 260.901 147.607 260.442 147.307C257.482 145.475 254.396 140.626 254.244 140.386Z" fill="#2F2E41"/>
<path d="M324.867 159.305C324.579 159.207 324.315 159.05 324.091 158.845C323.867 158.639 323.688 158.389 323.565 158.111C322.018 154.505 328.648 108.948 328.931 107.01L328.984 106.643L331.225 108.063L331.247 108.159C331.314 108.45 337.842 137.473 336.072 156.758L336.059 156.896L335.934 156.954C335.664 157.079 330.227 159.574 326.603 159.574C326.012 159.59 325.425 159.499 324.867 159.305Z" fill="#2F2E41"/>
<path d="M369.519 252H241.603C241.476 252 241.353 251.949 241.263 251.859C241.173 251.769 241.122 251.647 241.122 251.519C241.122 251.392 241.173 251.27 241.263 251.18C241.353 251.09 241.476 251.039 241.603 251.039H369.519C369.647 251.039 369.769 251.09 369.859 251.18C369.949 251.27 370 251.392 370 251.519C370 251.647 369.949 251.769 369.859 251.859C369.769 251.949 369.647 252 369.519 252Z" fill="#3F3D56"/>
</svg>
